<svg height='100px' width='100px'  fill="#000000" xmlns="http://www.w3.org/2000/svg" data-name="Layer 1" viewBox="0 0 100 100" x="0px" y="0px"><title>A</title><path d="M14.58484,20.32733V79.67267C14.58484,89.62817,32.83173,95,50,95c16.72284,0,34.46161-5.09863,35.37122-14.5636.04394,0,.04394-60.10907.04394-60.10907C85.41516,10.37183,67.16827,5,50,5S14.58484,10.37183,14.58484,20.32733ZM50,9.8913c18.91174,0,30.52386,6.0783,30.52386,10.436S68.91174,30.76343,50,30.76343s-30.52386-6.07831-30.52386-10.4361S31.08826,9.8913,50,9.8913ZM19.47614,28.38763C26.05145,33.14752,38.27509,35.65472,50,35.65472s23.94855-2.5072,30.52386-7.26709V40.109C80.52386,44.46674,68.91174,50.545,50,50.545S19.47614,44.46674,19.47614,40.109Zm0,19.78162C26.05145,52.92914,38.27509,55.43634,50,55.43634s23.94855-2.5072,30.52386-7.26709v11.7218c0,4.35773-11.61212,10.436-30.52386,10.436s-30.52386-6.07831-30.52386-10.436Zm0,19.782C26.05145,72.71118,38.27509,75.21838,50,75.21838s23.94855-2.5072,30.52386-7.26709V79.67267c0,4.35773-11.61212,10.436-30.52386,10.436s-30.52386-6.0783-30.52386-10.436Z"></path></svg>